<?xml version="1.0" encoding="UTF-8"?>
<svg width="24px" height="24px" viewBox="0 0 24 24" version="1.1" xmlns="http://www.w3.org/2000/svg" xmlns:xlink="http://www.w3.org/1999/xlink">
    <title>custom_view-white-24dp</title>
    <g id="Symbols" stroke="none" stroke-width="1" fill="none" fill-rule="evenodd">
        <g id="Momentum-menu-open" transform="translate(-22.000000, -215.000000)">
            <g id="custom_view-white-24dp" transform="translate(22.000000, 215.000000)">
                <polygon id="Path" points="0 0 24 0 24 24 0 24"></polygon>
                <path d="M19,5 L19,7 L15,7 L15,5 L19,5 M9,5 L9,11 L5,11 L5,5 L9,5 M19,13 L19,19 L15,19 L15,13 L19,13 M9,17 L9,19 L5,19 L5,17 L9,17 M21,3 L13,3 L13,9 L21,9 L21,3 Z M11,3 L3,3 L3,13 L11,13 L11,3 Z M21,11 L13,11 L13,21 L21,21 L21,11 Z M11,15 L3,15 L3,21 L11,21 L11,15 Z" id="Shape" fill="#FFFFFF" fill-rule="nonzero"></path>
            </g>
        </g>
    </g>
</svg>