<?xml version="1.0" encoding="UTF-8"?>
<svg width="24px" height="24px" viewBox="0 0 24 24" version="1.1" xmlns="http://www.w3.org/2000/svg" xmlns:xlink="http://www.w3.org/1999/xlink">
    <title>dashboard_icon-white-24px</title>
    <g id="Symbols" stroke="none" stroke-width="1" fill="none" fill-rule="evenodd">
        <g id="Momentum-menu-open" transform="translate(-22.000000, -61.000000)">
            <g id="dashboard_icon-white-24px" transform="translate(22.000000, 61.000000)">
                <polygon id="Path" points="0 0 24 0 24 24 0 24"></polygon>
                <path d="M21.2,18.2 L2.8,18.2 C2.3,18.2 1.9,17.8 1.9,17.3 L1.9,3.8 C1.9,3.3 2.3,2.9 2.8,2.9 L21.1,2.9 C21.6,2.9 22,3.3 22,3.8 L22,17.3 C22.1,17.8 21.7,18.2 21.2,18.2 Z M3.8,16.3 L20.3,16.3 L20.3,4.7 L3.8,4.7 L3.8,16.3 Z M8.3,14.1 L8.3,11.2 C8.3,10.7 7.9,10.3 7.4,10.3 C6.9,10.3 6.5,10.7 6.5,11.2 L6.5,14.1 C6.5,14.6 6.9,15 7.4,15 C7.9,15 8.3,14.6 8.3,14.1 Z M13,14.1 L13,9.3 C13,8.8 12.6,8.4 12.1,8.4 C11.6,8.4 11.2,8.8 11.2,9.3 L11.2,14.1 C11.2,14.6 11.6,15 12.1,15 C12.6,15 13,14.6 13,14.1 Z M18.1,14.1 L18.1,7.2 C18.1,6.7 17.7,6.3 17.2,6.3 C16.7,6.3 16.3,6.7 16.3,7.2 L16.3,14 C16.3,14.5 16.7,14.9 17.2,14.9 C17.7,14.9 18.1,14.6 18.1,14.1 Z M16.4,20.2 C16.4,19.7 16,19.3 15.5,19.3 L8.6,19.3 C8.1,19.3 7.7,19.7 7.7,20.2 C7.7,20.7 8.1,21.1 8.6,21.1 L15.5,21.1 C16,21.2 16.4,20.8 16.4,20.2 Z" id="Shape" fill="#FFFFFF" fill-rule="nonzero"></path>
            </g>
        </g>
    </g>
</svg>