<?xml version="1.0" encoding="utf-8"?>
<!-- Generator: Adobe Illustrator 24.1.2, SVG Export Plug-In . SVG Version: 6.00 Build 0)  -->
<svg version="1.1" id="Layer_1" xmlns="http://www.w3.org/2000/svg" xmlns:xlink="http://www.w3.org/1999/xlink" x="0px" y="0px"
	 viewBox="0 0 163 16" style="enable-background:new 0 0 163 16;" xml:space="preserve">
<style type="text/css">
	.st0{opacity:0.87;}
	.st1{enable-background:new    ;}
	.st2{fill:#FFFFFF;}
</style>
<g id="Symbols" class="st0">
	<g id="Momentum-header-1440" transform="translate(-102.000000, -31.000000)">
		<g class="st1">
			<path class="st2" d="M104.7,31.3l6,7.8l6-7.8h2.2V46h-2.3v-6.2c0-0.9,0-1.8,0.1-2.6c0-0.8,0.1-1.6,0.2-2.4l-5.5,7H110l-5.5-7
				c0.1,0.8,0.2,1.6,0.2,2.4c0,0.8,0,1.7,0,2.6V46h-2.3V31.3H104.7z"/>
			<path class="st2" d="M141.8,38.7c0,1.1-0.2,2.1-0.6,3c-0.4,0.9-1,1.7-1.8,2.4c-0.8,0.7-1.7,1.2-2.7,1.6s-2.2,0.6-3.4,0.6
				s-2.4-0.2-3.4-0.6c-1.1-0.4-2-0.9-2.7-1.6c-0.8-0.7-1.3-1.5-1.8-2.4c-0.4-0.9-0.6-1.9-0.6-3c0-1.1,0.2-2.1,0.6-3s1-1.7,1.8-2.4
				c0.8-0.7,1.7-1.2,2.7-1.6c1-0.4,2.2-0.6,3.4-0.6s2.4,0.2,3.4,0.6c1,0.4,1.9,0.9,2.7,1.6c0.8,0.7,1.4,1.5,1.8,2.4
				S141.8,37.6,141.8,38.7z M139.5,38.7c0-1-0.3-1.9-0.8-2.7c-0.5-0.8-1.3-1.4-2.2-1.9c-0.9-0.5-2-0.7-3.2-0.7
				c-1.2,0-2.3,0.2-3.3,0.7c-0.9,0.5-1.7,1.1-2.2,1.9c-0.5,0.8-0.8,1.7-0.8,2.7c0,1,0.3,1.9,0.8,2.7c0.5,0.8,1.3,1.4,2.2,1.9
				c0.9,0.5,2,0.7,3.3,0.7c1.2,0,2.3-0.2,3.2-0.7s1.7-1.1,2.2-1.9C139.3,40.6,139.5,39.7,139.5,38.7z"/>
			<path class="st2" d="M149.9,31.3l6,7.8l6-7.8h2.2V46h-2.3v-6.2c0-0.9,0-1.8,0.1-2.6c0-0.8,0.1-1.6,0.2-2.4l-5.5,7h-1.4l-5.5-7
				c0.1,0.8,0.2,1.6,0.2,2.4c0,0.8,0,1.7,0,2.6V46h-2.3V31.3H149.9z"/>
			<path class="st2" d="M171.1,31.3h11.6v2.2h-9.3v3.9h8.2v2.2h-8.2v4.3h9.3V46h-11.6V31.3z"/>
			<path class="st2" d="M202.1,31.3h2.3V46h-2.2L191,34.5c0.1,0.9,0.2,1.8,0.3,2.7s0.1,1.8,0.1,2.7V46h-2.3V31.3h2.2l11.1,11.8
				c-0.1-0.7-0.2-1.4-0.2-2.2s-0.1-1.6-0.1-2.4c0-0.8,0-1.6,0-2.3V31.3z"/>
			<path class="st2" d="M214.9,46V33.5h-5.3v-2.2h13v2.2h-5.4V46H214.9z"/>
			<path class="st2" d="M241.9,31.3v8c0,1.3-0.3,2.5-0.9,3.5c-0.6,1-1.4,1.9-2.5,2.4c-1.1,0.6-2.3,0.9-3.7,0.9
				c-1.4,0-2.7-0.3-3.7-0.9c-1.1-0.6-1.9-1.4-2.5-2.4c-0.6-1-0.9-2.2-0.9-3.5v-8h2.3v7.9c0,0.9,0.2,1.8,0.6,2.5
				c0.4,0.7,1,1.3,1.7,1.7c0.7,0.4,1.5,0.6,2.4,0.6c0.9,0,1.8-0.2,2.5-0.6c0.7-0.4,1.3-1,1.8-1.7c0.4-0.7,0.7-1.5,0.7-2.5v-7.9
				H241.9z"/>
			<path class="st2" d="M250.8,31.3l6,7.8l6-7.8h2.2V46h-2.3v-6.2c0-0.9,0-1.8,0.1-2.6c0-0.8,0.1-1.6,0.2-2.4l-5.5,7h-1.4l-5.5-7
				c0.1,0.8,0.2,1.6,0.2,2.4c0,0.8,0,1.7,0,2.6V46h-2.3V31.3H250.8z"/>
		</g>
	</g>
</g>
</svg>
